<?xml version="1.0" encoding="UTF-8"?>
<svg xmlns="http://www.w3.org/2000/svg" viewBox="0 0 1117.09 1117.09">
  <defs>
    <style>
      .cls-1 {
        fill: #dbdbdb;
        stroke-width: 1.4px;
      }

      .cls-1, .cls-2, .cls-3, .cls-4, .cls-5, .cls-6, .cls-7, .cls-8, .cls-9, .cls-10, .cls-11, .cls-12, .cls-13, .cls-14, .cls-15, .cls-16, .cls-17, .cls-18, .cls-19, .cls-20, .cls-21, .cls-22, .cls-23, .cls-24, .cls-25, .cls-26, .cls-27, .cls-28, .cls-29, .cls-30, .cls-31, .cls-32, .cls-33, .cls-34, .cls-35, .cls-36, .cls-37, .cls-38, .cls-39, .cls-40, .cls-41, .cls-42, .cls-43, .cls-44, .cls-45, .cls-46, .cls-47, .cls-48, .cls-49, .cls-50, .cls-51, .cls-52, .cls-53, .cls-54, .cls-55, .cls-56, .cls-57, .cls-58, .cls-59, .cls-60, .cls-61, .cls-62, .cls-63, .cls-64, .cls-65, .cls-66, .cls-67, .cls-68, .cls-69, .cls-70, .cls-71, .cls-72, .cls-73, .cls-74, .cls-75, .cls-76, .cls-77, .cls-78, .cls-79, .cls-80, .cls-81, .cls-82, .cls-83, .cls-84, .cls-85, .cls-86, .cls-87, .cls-88, .cls-89, .cls-90, .cls-91, .cls-92, .cls-93, .cls-94, .cls-95, .cls-96, .cls-97, .cls-98, .cls-99, .cls-100, .cls-101, .cls-102, .cls-103, .cls-104, .cls-105, .cls-106, .cls-107, .cls-108, .cls-109, .cls-110, .cls-111, .cls-112, .cls-113, .cls-114, .cls-115, .cls-116, .cls-117, .cls-118, .cls-119, .cls-120, .cls-121 {
        stroke: #fff;
        stroke-miterlimit: 10;
      }

      .cls-2 {
        fill: #ececec;
        stroke-width: .74px;
      }

      .cls-3 {
        fill: #cacaca;
        stroke-width: 2.07px;
      }

      .cls-4 {
        fill: #a4a4a4;
        stroke-width: 3.55px;
      }

      .cls-5 {
        fill: #040404;
        stroke-width: 9.83px;
      }

      .cls-6 {
        fill: #303030;
        stroke-width: 8.1px;
      }

      .cls-7 {
        fill: #262626;
        stroke-width: 8.51px;
      }

      .cls-8 {
        fill: #f0f0f0;
        stroke-width: .58px;
      }

      .cls-9 {
        fill: #d3d3d3;
        stroke-width: 1.74px;
      }

      .cls-10 {
        fill: #525252;
        stroke-width: 6.78px;
      }

      .cls-11 {
        fill: #8b8b8b;
        stroke-width: 4.55px;
      }

      .cls-12 {
        fill: #464646;
        stroke-width: 7.27px;
      }

      .cls-13 {
        fill: #7c7c7c;
        stroke-width: 5.12px;
      }

      .cls-14 {
        fill: #202020;
        stroke-width: 8.76px;
      }

      .cls-15 {
        fill: #1e1e1e;
        stroke-width: 8.84px;
      }

      .cls-16 {
        fill: #707070;
        stroke-width: 5.62px;
      }

      .cls-17 {
        fill: #080808;
        stroke-width: 9.67px;
      }

      .cls-18 {
        fill: #616161;
        stroke-width: 6.2px;
      }

      .cls-19 {
        fill: #5d5d5d;
        stroke-width: 6.36px;
      }

      .cls-20 {
        fill: #878787;
        stroke-width: 4.71px;
      }

      .cls-21 {
        fill: #f4f4f4;
        stroke-width: .41px;
      }

      .cls-22 {
        fill: #fdfdfd;
        stroke-width: .08px;
      }

      .cls-23 {
        fill: #242424;
        stroke-width: 8.6px;
      }

      .cls-24 {
        fill: #060606;
        stroke-width: 9.75px;
      }

      .cls-25 {
        fill: #d7d7d7;
        stroke-width: 1.57px;
      }

      .cls-26 {
        fill: #5f5f5f;
        stroke-width: 6.28px;
      }

      .cls-27 {
        fill: #949494;
        stroke-width: 4.21px;
      }

      .cls-28 {
        fill: #e4e4e4;
        stroke-width: 1.07px;
      }

      .cls-29 {
        fill: #dfdfdf;
        stroke-width: 1.24px;
      }

      .cls-30 {
        fill: #3f3f3f;
        stroke-width: 7.52px;
      }

      .cls-31 {
        fill: #676767;
        stroke-width: 5.95px;
      }

      .cls-32 {
        fill: #b7b7b7;
        stroke-width: 2.81px;
      }

      .cls-33 {
        fill: #898989;
        stroke-width: 4.63px;
      }

      .cls-34 {
        fill: #3d3d3d;
        stroke-width: 7.6px;
      }

      .cls-35 {
        fill: #818181;
        stroke-width: 4.96px;
      }

      .cls-122 {
        fill: #fff;
      }

      .cls-36 {
        fill: #1b1b1b;
        stroke-width: 8.93px;
      }

      .cls-37 {
        fill: #b9b9b9;
        stroke-width: 2.73px;
      }

      .cls-38 {
        fill: #ababab;
        stroke-width: 3.31px;
      }

      .cls-39 {
        fill: #787878;
        stroke-width: 5.29px;
      }

      .cls-40 {
        fill: #b5b5b5;
        stroke-width: 2.89px;
      }

      .cls-41 {
        fill: #484848;
        stroke-width: 7.19px;
      }

      .cls-42 {
        fill: #727272;
        stroke-width: 5.54px;
      }

      .cls-43 {
        fill: #919191;
        stroke-width: 4.3px;
      }

      .cls-44 {
        fill: #2e2e2e;
        stroke-width: 8.18px;
      }

      .cls-45 {
        fill: #565656;
        stroke-width: 6.61px;
      }

      .cls-46 {
        fill: #ddd;
        stroke-width: 1.32px;
      }

      .cls-47 {
        fill: #a9a9a9;
        stroke-width: 3.39px;
      }

      .cls-48 {
        fill: #c2c2c2;
        stroke-width: 2.4px;
      }

      .cls-49 {
        fill: #d9d9d9;
        stroke-width: 1.49px;
      }

      .cls-50 {
        fill: #7a7a7a;
        stroke-width: 5.21px;
      }

      .cls-51 {
        fill: #f2f2f2;
        stroke-width: .5px;
      }

      .cls-52 {
        fill: #e1e1e1;
        stroke-width: 1.16px;
      }

      .cls-53 {
        fill: #b3b3b3;
        stroke-width: 2.98px;
      }

      .cls-54 {
        fill: #505050;
        stroke-width: 6.86px;
      }

      .cls-55 {
        fill: #9e9e9e;
        stroke-width: 3.8px;
      }

      .cls-56 {
        fill: #747474;
        stroke-width: 5.45px;
      }

      .cls-57 {
        fill: #ccc;
        stroke-width: 1.98px;
      }

      .cls-58 {
        fill: #c8c8c8;
        stroke-width: 2.15px;
      }

      .cls-59 {
        fill: #6e6e6e;
        stroke-width: 5.7px;
      }

      .cls-60 {
        fill: #696969;
        stroke-width: 5.87px;
      }

      .cls-61 {
        fill: #d1d1d1;
        stroke-width: 1.82px;
      }

      .cls-62 {
        fill: #656565;
        stroke-width: 6.03px;
      }

      .cls-63 {
        fill: #636363;
        stroke-width: 6.12px;
      }

      .cls-64 {
        fill: #c6c6c6;
        stroke-width: 2.23px;
      }

      .cls-65 {
        fill: #b1b1b1;
        stroke-width: 3.06px;
      }

      .cls-66 {
        fill: #7e7e7e;
        stroke-width: 5.04px;
      }

      .cls-67 {
        fill: #0d0d0d;
        stroke-width: 9.5px;
      }

      .cls-68 {
        fill: #adadad;
        stroke-width: 3.22px;
      }

      .cls-69 {
        fill: #eaeaea;
        stroke-width: .83px;
      }

      .cls-70 {
        fill: #111;
        stroke-width: 9.34px;
      }

      .cls-71 {
        fill: #2c2c2c;
        stroke-width: 8.26px;
      }

      .cls-72 {
        fill: #afafaf;
        stroke-width: 3.14px;
      }

      .cls-73 {
        fill: #8f8f8f;
        stroke-width: 4.38px;
      }

      .cls-74 {
        fill: #191919;
        stroke-width: 9.01px;
      }

      .cls-75 {
        fill: #e6e6e6;
        stroke-width: .99px;
      }

      .cls-76 {
        fill: #e8e8e8;
        stroke-width: .91px;
      }

      .cls-77 {
        fill: #0b0b0b;
        stroke-width: 9.59px;
      }

      .cls-78 {
        fill: #222;
        stroke-width: 8.68px;
      }

      .cls-79 {
        fill: #333;
        stroke-width: 8.02px;
      }

      .cls-80 {
        fill: #bcbcbc;
        stroke-width: 2.64px;
      }

      .cls-81 {
        fill: #c4c4c4;
        stroke-width: 2.31px;
      }

      .cls-82 {
        fill: #545454;
        stroke-width: 6.69px;
      }

      .cls-83 {
        fill: #fbfbfb;
        stroke-width: .17px;
      }

      .cls-84 {
        fill: #eee;
        stroke-width: .66px;
      }

      .cls-85 {
        fill: #3b3b3b;
        stroke-width: 7.69px;
      }

      .cls-86 {
        fill: #2a2a2a;
        stroke-width: 8.35px;
      }

      .cls-87 {
        fill: #767676;
        stroke-width: 5.37px;
      }

      .cls-88 {
        fill: #282828;
        stroke-width: 8.43px;
      }

      .cls-89 {
        fill: #a2a2a2;
        stroke-width: 3.64px;
      }

      .cls-90 {
        fill: #414141;
        stroke-width: 7.44px;
      }

      .cls-91 {
        fill: #5b5b5b;
        stroke-width: 6.45px;
      }

      .cls-92 {
        fill: #131313;
        stroke-width: 9.26px;
      }

      .cls-93 {
        fill: #151515;
        stroke-width: 9.17px;
      }

      .cls-94 {
        fill: #393939;
        stroke-width: 7.77px;
      }

      .cls-95 {
        fill: #4c4c4c;
        stroke-width: 7.02px;
      }

      .cls-96 {
        fill: #6b6b6b;
        stroke-width: 5.79px;
      }

      .cls-97 {
        stroke-width: 10px;
      }

      .cls-98 {
        fill: #f9f9f9;
        stroke-width: .25px;
      }

      .cls-99 {
        fill: #171717;
        stroke-width: 9.09px;
      }

      .cls-100 {
        fill: #373737;
        stroke-width: 7.85px;
      }

      .cls-101 {
        fill: #9a9a9a;
        stroke-width: 3.97px;
      }

      .cls-102 {
        fill: #a6a6a6;
        stroke-width: 3.47px;
      }

      .cls-103 {
        fill: #8d8d8d;
        stroke-width: 4.46px;
      }

      .cls-104 {
        fill: #4a4a4a;
        stroke-width: 7.11px;
      }

      .cls-105 {
        fill: #434343;
        stroke-width: 7.36px;
      }

      .cls-106 {
        fill: #989898;
        stroke-width: 4.05px;
      }

      .cls-107 {
        fill: #4e4e4e;
        stroke-width: 6.94px;
      }

      .cls-108 {
        fill: #0f0f0f;
        stroke-width: 9.42px;
      }

      .cls-109 {
        fill: #353535;
        stroke-width: 7.93px;
      }

      .cls-110 {
        fill: silver;
        stroke-width: 2.48px;
      }

      .cls-111 {
        fill: #858585;
        stroke-width: 4.79px;
      }

      .cls-112 {
        fill: #f7f7f7;
        stroke-width: .33px;
      }

      .cls-113 {
        fill: #838383;
        stroke-width: 4.88px;
      }

      .cls-114 {
        fill: #a0a0a0;
        stroke-width: 3.72px;
      }

      .cls-115 {
        fill: #d5d5d5;
        stroke-width: 1.65px;
      }

      .cls-116 {
        fill: #595959;
        stroke-width: 6.53px;
      }

      .cls-117 {
        fill: #9c9c9c;
        stroke-width: 3.88px;
      }

      .cls-118 {
        fill: #020202;
        stroke-width: 9.92px;
      }

      .cls-119 {
        fill: #969696;
        stroke-width: 4.13px;
      }

      .cls-120 {
        fill: #bebebe;
        stroke-width: 2.56px;
      }

      .cls-121 {
        fill: #cfcfcf;
        stroke-width: 1.9px;
      }
    </style>
  </defs>
  <g id="Layer_6">
    <g>
      <path class="cls-122" d="M582.65,523.8v-194.71h125c30.06,0,53.43,8.47,70.1,25.4,16.67,16.93,25,40.91,25,71.95s-8.33,54.64-25,71.73c-16.67,17.1-40.03,25.63-70.1,25.63h-125ZM832.83,613.16c18.14-8.75,34.26-19.8,48.34-33.16,40.85-38.72,61.27-93.04,61.27-162.95,0-64.58-20.42-114.44-61.27-149.55-40.86-35.12-98.7-52.67-173.53-52.67H217.49v110.45l235.75.4v556.96h129.41v-244.55h121.74l102.27,244.55h154.4l-128.24-269.47Z"/>
      <path class="cls-22" d="M582.4,523.97v-194.7h124.95c30.05,0,53.41,8.47,70.07,25.4,16.66,16.93,24.99,40.91,24.99,71.94s-8.33,54.64-24.99,71.72c-16.66,17.1-40.02,25.63-70.07,25.63h-124.95ZM832.49,613.32c18.14-8.75,34.25-19.8,48.33-33.16,40.83-38.72,61.25-93.03,61.25-162.95,0-64.58-20.42-114.43-61.25-149.55-40.84-35.11-98.66-52.67-173.47-52.67H217.37v110.45l235.66.4v556.94h129.36v-244.55h121.7l102.24,244.55h154.35l-128.19-269.47Z"/>
      <path class="cls-83" d="M582.15,524.14v-194.7h124.91c30.04,0,53.39,8.47,70.04,25.4,16.66,16.92,24.99,40.91,24.99,71.94s-8.33,54.64-24.99,71.72c-16.66,17.1-40,25.63-70.04,25.63h-124.91ZM832.15,613.49c18.13-8.75,34.23-19.8,48.31-33.16,40.82-38.71,61.23-93.03,61.23-162.95,0-64.58-20.41-114.43-61.23-149.54-40.83-35.11-98.62-52.67-173.4-52.67H217.25v110.45l235.58.4v556.93h129.32v-244.54h121.66l102.2,244.54h154.29l-128.15-269.46Z"/>
      <path class="cls-98" d="M581.9,524.31v-194.69h124.86c30.03,0,53.37,8.47,70.02,25.4,16.65,16.92,24.98,40.91,24.98,71.94s-8.33,54.63-24.98,71.72c-16.65,17.09-39.99,25.63-70.02,25.63h-124.86ZM831.81,613.65c18.12-8.75,34.22-19.8,48.29-33.16,40.8-38.71,61.2-93.03,61.2-162.94,0-64.58-20.4-114.43-61.2-149.54-40.81-35.11-98.59-52.67-173.34-52.67H217.13v110.44l235.49.4v556.91h129.27v-244.53h121.61l102.16,244.53h154.23l-128.1-269.45Z"/>
      <path class="cls-112" d="M581.64,524.47v-194.69h124.82c30.02,0,53.35,8.47,69.99,25.4,16.64,16.92,24.97,40.91,24.97,71.94s-8.32,54.63-24.97,71.72c-16.64,17.09-39.97,25.63-69.99,25.63h-124.82ZM831.46,613.82c18.12-8.75,34.21-19.8,48.27-33.16,40.79-38.71,61.18-93.02,61.18-162.94,0-64.57-20.39-114.42-61.18-149.53-40.8-35.11-98.55-52.67-173.28-52.67H217.01v110.44l235.41.4v556.9h129.22v-244.53h121.57l102.12,244.53h154.18l-128.05-269.44Z"/>
      <path class="cls-21" d="M581.39,524.64v-194.68h124.77c30.01,0,53.33,8.47,69.97,25.4,16.64,16.92,24.96,40.91,24.96,71.94s-8.32,54.63-24.96,71.72c-16.64,17.09-39.96,25.63-69.97,25.63h-124.77ZM831.12,613.98c18.11-8.75,34.2-19.8,48.26-33.15,40.77-38.71,61.16-93.02,61.16-162.93,0-64.57-20.39-114.42-61.16-149.53-40.78-35.11-98.52-52.67-173.22-52.67H216.89v110.44l235.32.4v556.88h129.18v-244.52h121.52l102.09,244.52h154.12l-128.01-269.44Z"/>
      <path class="cls-51" d="M581.14,524.81v-194.68h124.73c30,0,53.31,8.47,69.94,25.4,16.63,16.92,24.95,40.91,24.95,71.93s-8.32,54.63-24.95,71.71c-16.63,17.09-39.94,25.63-69.94,25.63h-124.73ZM830.78,614.15c18.1-8.75,34.18-19.8,48.24-33.15,40.76-38.71,61.14-93.02,61.14-162.93,0-64.57-20.38-114.42-61.14-149.53-40.77-35.11-98.48-52.66-173.15-52.66H216.77v110.43l235.24.4v556.87h129.13v-244.51h121.48l102.05,244.51h154.07l-127.96-269.43Z"/>
      <path class="cls-8" d="M580.89,524.97v-194.67h124.68c29.99,0,53.29,8.47,69.92,25.4,16.63,16.92,24.94,40.91,24.94,71.93s-8.31,54.63-24.94,71.71c-16.63,17.09-39.93,25.63-69.92,25.63h-124.68ZM830.44,614.31c18.1-8.75,34.17-19.8,48.22-33.15,40.74-38.71,61.11-93.02,61.11-162.92,0-64.57-20.37-114.41-61.11-149.52-40.75-35.11-98.45-52.66-173.09-52.66H216.65v110.43l235.15.4v556.85h129.08v-244.51h121.44l102.01,244.51h154.01l-127.91-269.42Z"/>
      <path class="cls-84" d="M580.64,525.14v-194.67h124.63c29.98,0,53.27,8.47,69.89,25.4,16.62,16.92,24.93,40.91,24.93,71.93s-8.31,54.63-24.93,71.71c-16.62,17.09-39.91,25.63-69.89,25.63h-124.63ZM830.09,614.47c18.09-8.75,34.16-19.8,48.2-33.15,40.73-38.71,61.09-93.01,61.09-162.92,0-64.57-20.36-114.41-61.09-149.52-40.74-35.11-98.41-52.66-173.03-52.66H216.53v110.43l235.07.4v556.84h129.04v-244.5h121.39l101.98,244.5h153.96l-127.87-269.42Z"/>
      <path class="cls-2" d="M580.39,525.31v-194.66h124.59c29.97,0,53.25,8.47,69.87,25.4,16.61,16.92,24.92,40.9,24.92,71.93s-8.31,54.63-24.92,71.71c-16.61,17.09-39.9,25.63-69.87,25.63h-124.59ZM829.75,614.64c18.08-8.75,34.15-19.8,48.19-33.15,40.71-38.71,61.07-93.01,61.07-162.91,0-64.57-20.36-114.41-61.07-149.51-40.72-35.11-98.38-52.66-172.96-52.66H216.41v110.43l234.98.4v556.82h128.99v-244.49h121.35l101.94,244.49h153.9l-127.82-269.41Z"/>
      <path class="cls-69" d="M580.13,525.48v-194.66h124.54c29.96,0,53.23,8.47,69.84,25.4,16.61,16.92,24.91,40.9,24.91,71.93s-8.3,54.62-24.91,71.71c-16.61,17.09-39.89,25.63-69.84,25.63h-124.54ZM829.41,614.8c18.08-8.75,34.13-19.8,48.17-33.15,40.7-38.71,61.05-93.01,61.05-162.91,0-64.56-20.35-114.4-61.05-149.51-40.71-35.11-98.34-52.66-172.9-52.66H216.3v110.42l234.9.4v556.81h128.94v-244.49h121.3l101.9,244.49h153.84l-127.77-269.4Z"/>
      <path class="cls-76" d="M579.88,525.64v-194.65h124.5c29.95,0,53.21,8.47,69.82,25.4,16.6,16.92,24.9,40.9,24.9,71.92s-8.3,54.62-24.9,71.7c-16.6,17.09-39.87,25.63-69.82,25.63h-124.5ZM829.07,614.97c18.07-8.75,34.12-19.8,48.15-33.15,40.68-38.71,61.03-93.01,61.03-162.91,0-64.56-20.34-114.4-61.03-149.51-40.69-35.1-98.3-52.66-172.84-52.66H216.18v110.42l234.81.4v556.79h128.89v-244.48h121.26l101.87,244.48h153.79l-127.73-269.39Z"/>
      <path class="cls-75" d="M579.63,525.81v-194.65h124.45c29.93,0,53.19,8.47,69.79,25.4,16.6,16.92,24.9,40.9,24.9,71.92s-8.3,54.62-24.9,71.7c-16.6,17.09-39.86,25.63-69.79,25.63h-124.45ZM828.73,615.13c18.06-8.75,34.11-19.8,48.13-33.15,40.67-38.7,61-93,61-162.9,0-64.56-20.33-114.4-61-149.5-40.68-35.1-98.27-52.66-172.78-52.66H216.06v110.42l234.73.4v556.78h128.85v-244.47h121.22l101.83,244.47h153.73l-127.68-269.39Z"/>
      <path class="cls-28" d="M579.38,525.98v-194.64h124.41c29.92,0,53.18,8.46,69.77,25.39,16.59,16.92,24.89,40.9,24.89,71.92s-8.3,54.62-24.89,71.7c-16.59,17.09-39.84,25.63-69.77,25.63h-124.41ZM828.38,615.3c18.06-8.75,34.1-19.8,48.12-33.15,40.65-38.7,60.98-93,60.98-162.9,0-64.56-20.33-114.39-60.98-149.5-40.66-35.1-98.23-52.65-172.71-52.65H215.94v110.41l234.64.4v556.76h128.8v-244.47h121.17l101.79,244.47h153.68l-127.64-269.38Z"/>
      <path class="cls-52" d="M579.13,526.14v-194.63h124.36c29.91,0,53.16,8.46,69.74,25.39,16.58,16.92,24.88,40.9,24.88,71.92s-8.29,54.62-24.88,71.7c-16.58,17.09-39.83,25.62-69.74,25.62h-124.36ZM828.04,615.46c18.05-8.75,34.08-19.8,48.1-33.15,40.64-38.7,60.96-93,60.96-162.89,0-64.56-20.32-114.39-60.96-149.49-40.65-35.1-98.2-52.65-172.65-52.65H215.82v110.41l234.56.4v556.75h128.75v-244.46h121.13l101.76,244.46h153.62l-127.59-269.37Z"/>
      <path class="cls-29" d="M578.88,526.31v-194.63h124.32c29.9,0,53.14,8.46,69.72,25.39,16.58,16.92,24.87,40.9,24.87,71.92s-8.29,54.62-24.87,71.7c-16.58,17.09-39.81,25.62-69.72,25.62h-124.32ZM827.7,615.63c18.05-8.75,34.07-19.8,48.08-33.15,40.62-38.7,60.94-93,60.94-162.89,0-64.56-20.31-114.39-60.94-149.49-40.64-35.1-98.16-52.65-172.59-52.65H215.7v110.41l234.47.4v556.73h128.71v-244.45h121.08l101.72,244.45h153.57l-127.54-269.36Z"/>
      <path class="cls-46" d="M578.62,526.48v-194.62h124.27c29.89,0,53.12,8.46,69.69,25.39,16.57,16.92,24.86,40.9,24.86,71.91s-8.29,54.62-24.86,71.69c-16.57,17.09-39.8,25.62-69.69,25.62h-124.27ZM827.36,615.79c18.04-8.74,34.06-19.8,48.06-33.14,40.61-38.7,60.92-92.99,60.92-162.88,0-64.55-20.3-114.39-60.92-149.49-40.62-35.1-98.13-52.65-172.53-52.65H215.58v110.4l234.39.4v556.71h128.66v-244.45h121.04l101.68,244.45h153.51l-127.5-269.36Z"/>
      <path class="cls-1" d="M578.37,526.65v-194.62h124.23c29.88,0,53.1,8.46,69.66,25.39,16.57,16.92,24.85,40.9,24.85,71.91s-8.28,54.61-24.85,71.69c-16.57,17.09-39.78,25.62-69.66,25.62h-124.23ZM827.02,615.96c18.03-8.74,34.05-19.8,48.05-33.14,40.6-38.7,60.89-92.99,60.89-162.88,0-64.55-20.3-114.38-60.89-149.48-40.61-35.1-98.09-52.65-172.46-52.65H215.46v110.4l234.3.4v556.7h128.61v-244.44h121l101.64,244.44h153.45l-127.45-269.35Z"/>
      <path class="cls-49" d="M578.12,526.81v-194.61h124.18c29.87,0,53.08,8.46,69.64,25.39,16.56,16.92,24.84,40.89,24.84,71.91s-8.28,54.61-24.84,71.69c-16.56,17.09-39.77,25.62-69.64,25.62h-124.18ZM826.67,616.12c18.03-8.74,34.04-19.8,48.03-33.14,40.58-38.7,60.87-92.99,60.87-162.87,0-64.55-20.29-114.38-60.87-149.48-40.59-35.1-98.05-52.65-172.4-52.65H215.34v110.4l234.22.4v556.68h128.57v-244.43h120.95l101.61,244.43h153.4l-127.4-269.34Z"/>
      <path class="cls-25" d="M577.87,526.98v-194.61h124.14c29.86,0,53.06,8.46,69.61,25.39,16.55,16.92,24.83,40.89,24.83,71.91s-8.28,54.61-24.83,71.69c-16.55,17.09-39.76,25.62-69.61,25.62h-124.14ZM826.33,616.29c18.02-8.74,34.02-19.79,48.01-33.14,40.57-38.7,60.85-92.99,60.85-162.87,0-64.55-20.28-114.38-60.85-149.47-40.58-35.1-98.02-52.65-172.34-52.65H215.22v110.4l234.13.4v556.67h128.52v-244.43h120.91l101.57,244.43h153.34l-127.36-269.33Z"/>
      <path class="cls-115" d="M577.62,527.15v-194.6h124.09c29.85,0,53.04,8.46,69.59,25.39,16.55,16.92,24.82,40.89,24.82,71.91s-8.27,54.61-24.82,71.69c-16.55,17.09-39.74,25.62-69.59,25.62h-124.09ZM825.99,616.45c18.01-8.74,34.01-19.79,47.99-33.14,40.55-38.7,60.83-92.98,60.83-162.87,0-64.55-20.28-114.37-60.83-149.47-40.56-35.1-97.98-52.64-172.27-52.64H215.1v110.39l234.05.4v556.65h128.47v-244.42h120.86l101.53,244.42h153.29l-127.31-269.33Z"/>
      <path class="cls-9" d="M577.37,527.31v-194.6h124.05c29.84,0,53.02,8.46,69.56,25.39,16.54,16.92,24.81,40.89,24.81,71.91s-8.27,54.61-24.81,71.68c-16.54,17.09-39.73,25.62-69.56,25.62h-124.05ZM825.65,616.62c18.01-8.74,34-19.79,47.98-33.14,40.54-38.69,60.8-92.98,60.8-162.86,0-64.55-20.27-114.37-60.8-149.47-40.55-35.1-97.95-52.64-172.21-52.64H214.98v110.39l233.96.4v556.64h128.43v-244.41h120.82l101.5,244.41h153.23l-127.26-269.32Z"/>
      <path class="cls-61" d="M577.12,527.48v-194.59h124c29.83,0,53,8.46,69.54,25.39,16.54,16.92,24.8,40.89,24.8,71.9s-8.27,54.61-24.8,71.68c-16.54,17.09-39.71,25.62-69.54,25.62h-124ZM825.31,616.78c18-8.74,33.99-19.79,47.96-33.14,40.52-38.69,60.78-92.98,60.78-162.86,0-64.54-20.26-114.37-60.78-149.46-40.53-35.09-97.91-52.64-172.15-52.64H214.86v110.39l233.88.4v556.62h128.38v-244.41h120.78l101.46,244.41h153.17l-127.22-269.31Z"/>
      <path class="cls-121" d="M576.86,527.65v-194.59h123.96c29.81,0,52.98,8.46,69.51,25.39,16.53,16.91,24.8,40.89,24.8,71.9s-8.27,54.61-24.8,71.68c-16.53,17.09-39.7,25.62-69.51,25.62h-123.96ZM824.96,616.95c17.99-8.74,33.97-19.79,47.94-33.14,40.51-38.69,60.76-92.98,60.76-162.85,0-64.54-20.25-114.36-60.76-149.46-40.52-35.09-97.88-52.64-172.09-52.64H214.74v110.38l233.79.4v556.61h128.33v-244.4h120.73l101.42,244.4h153.12l-127.17-269.31Z"/>
      <path class="cls-57" d="M576.61,527.82v-194.58h123.91c29.8,0,52.96,8.46,69.49,25.39,16.52,16.91,24.79,40.89,24.79,71.9s-8.26,54.6-24.79,71.68c-16.52,17.08-39.68,25.62-69.49,25.62h-123.91ZM824.62,617.11c17.99-8.74,33.96-19.79,47.92-33.14,40.49-38.69,60.74-92.97,60.74-162.85,0-64.54-20.25-114.36-60.74-149.45-40.5-35.09-97.84-52.64-172.02-52.64H214.62v110.38l233.7.4v556.59h128.29v-244.39h120.69l101.39,244.39h153.06l-127.13-269.3Z"/>
      <path class="cls-3" d="M576.36,527.98v-194.58h123.87c29.79,0,52.94,8.46,69.46,25.39,16.52,16.91,24.78,40.89,24.78,71.9s-8.26,54.6-24.78,71.68c-16.52,17.08-39.67,25.62-69.46,25.62h-123.87ZM824.28,617.27c17.98-8.74,33.95-19.79,47.91-33.14,40.48-38.69,60.72-92.97,60.72-162.84,0-64.54-20.24-114.36-60.72-149.45-40.49-35.09-97.8-52.64-171.96-52.64H214.5v110.38l233.62.4v556.58h128.24v-244.39h120.64l101.35,244.39h153.01l-127.08-269.29Z"/>
      <path class="cls-58" d="M576.11,528.15v-194.57h123.82c29.78,0,52.92,8.46,69.44,25.39,16.51,16.91,24.77,40.89,24.77,71.9s-8.26,54.6-24.77,71.67c-16.51,17.08-39.65,25.62-69.44,25.62h-123.82ZM823.94,617.44c17.97-8.74,33.94-19.79,47.89-33.14,40.46-38.69,60.69-92.97,60.69-162.84,0-64.54-20.23-114.35-60.69-149.45-40.47-35.09-97.77-52.64-171.9-52.64H214.38v110.37l233.53.4v556.56h128.19v-244.38h120.6l101.31,244.38h152.95l-127.03-269.28Z"/>
      <path class="cls-64" d="M575.86,528.32v-194.57h123.78c29.77,0,52.91,8.46,69.41,25.38,16.51,16.91,24.76,40.88,24.76,71.89s-8.25,54.6-24.76,71.67c-16.51,17.08-39.64,25.62-69.41,25.62h-123.78ZM823.6,617.6c17.97-8.74,33.92-19.79,47.87-33.13,40.45-38.69,60.67-92.97,60.67-162.84,0-64.53-20.22-114.35-60.67-149.44-40.46-35.09-97.73-52.63-171.84-52.63H214.26v110.37l233.45.4v556.55h128.15v-244.37h120.56l101.27,244.37h152.9l-126.99-269.28Z"/>
      <path class="cls-81" d="M575.61,528.48v-194.56h123.73c29.76,0,52.89,8.46,69.39,25.38,16.5,16.91,24.75,40.88,24.75,71.89s-8.25,54.6-24.75,71.67c-16.5,17.08-39.63,25.61-69.39,25.61h-123.73ZM823.25,617.77c17.96-8.74,33.91-19.79,47.85-33.13,40.43-38.69,60.65-92.96,60.65-162.83,0-64.53-20.22-114.35-60.65-149.44-40.44-35.09-97.7-52.63-171.77-52.63H214.14v110.37l233.36.4v556.53h128.1v-244.37h120.51l101.24,244.37h152.84l-126.94-269.27Z"/>
      <path class="cls-48" d="M575.35,528.65v-194.56h123.69c29.75,0,52.87,8.46,69.36,25.38,16.49,16.91,24.74,40.88,24.74,71.89s-8.25,54.6-24.74,71.67c-16.49,17.08-39.61,25.61-69.36,25.61h-123.69ZM822.91,617.93c17.95-8.74,33.9-19.79,47.84-33.13,40.42-38.69,60.63-92.96,60.63-162.83,0-64.53-20.21-114.35-60.63-149.43-40.43-35.09-97.66-52.63-171.71-52.63H214.02v110.37l233.28.4v556.52h128.05v-244.36h120.47l101.2,244.36h152.78l-126.89-269.26Z"/>
      <path class="cls-110" d="M575.1,528.82v-194.55h123.64c29.74,0,52.85,8.46,69.34,25.38,16.49,16.91,24.73,40.88,24.73,71.89s-8.24,54.59-24.73,71.67c-16.49,17.08-39.6,25.61-69.34,25.61h-123.64ZM822.57,618.1c17.95-8.74,33.89-19.79,47.82-33.13,40.4-38.69,60.61-92.96,60.61-162.82,0-64.53-20.2-114.34-60.61-149.43-40.41-35.09-97.63-52.63-171.65-52.63H213.9v110.36l233.19.4v556.5h128.01v-244.35h120.42l101.16,244.35h152.73l-126.85-269.25Z"/>
      <path class="cls-120" d="M574.85,528.99v-194.54h123.6c29.73,0,52.83,8.46,69.31,25.38,16.48,16.91,24.72,40.88,24.72,71.89s-8.24,54.59-24.72,71.66c-16.48,17.08-39.58,25.61-69.31,25.61h-123.6ZM822.23,618.26c17.94-8.74,33.87-19.79,47.8-33.13,40.39-38.68,60.58-92.96,60.58-162.82,0-64.53-20.19-114.34-60.58-149.42-40.4-35.09-97.59-52.63-171.58-52.63H213.78v110.36l233.11.4v556.49h127.96v-244.35h120.38l101.13,244.35h152.67l-126.8-269.25Z"/>
      <path class="cls-80" d="M574.6,529.15v-194.54h123.55c29.72,0,52.81,8.46,69.28,25.38,16.48,16.91,24.71,40.88,24.71,71.88s-8.24,54.59-24.71,71.66c-16.48,17.08-39.57,25.61-69.28,25.61h-123.55ZM821.89,618.43c17.93-8.74,33.86-19.79,47.79-33.13,40.37-38.68,60.56-92.95,60.56-162.81,0-64.53-20.19-114.34-60.56-149.42-40.38-35.08-97.55-52.63-171.52-52.63H213.66v110.36l233.02.4v556.47h127.91v-244.34h120.34l101.09,244.34h152.62l-126.75-269.24Z"/>
      <path class="cls-37" d="M574.35,529.32v-194.53h123.51c29.71,0,52.79,8.46,69.26,25.38,16.47,16.91,24.71,40.88,24.71,71.88s-8.24,54.59-24.71,71.66c-16.47,17.08-39.55,25.61-69.26,25.61h-123.51ZM821.54,618.59c17.93-8.74,33.85-19.79,47.77-33.13,40.36-38.68,60.54-92.95,60.54-162.81,0-64.52-20.18-114.33-60.54-149.42-40.37-35.08-97.52-52.63-171.46-52.63H213.54v110.35l232.94.4v556.46h127.87v-244.33h120.29l101.05,244.33h152.56l-126.71-269.23Z"/>
      <path class="cls-32" d="M574.1,529.49v-194.53h123.46c29.7,0,52.77,8.46,69.23,25.38,16.46,16.91,24.7,40.88,24.7,71.88s-8.23,54.59-24.7,71.66c-16.46,17.08-39.54,25.61-69.23,25.61h-123.46ZM821.2,618.76c17.92-8.74,33.84-19.79,47.75-33.13,40.34-38.68,60.52-92.95,60.52-162.8,0-64.52-20.17-114.33-60.52-149.41-40.35-35.08-97.48-52.62-171.4-52.62H213.42v110.35l232.85.4v556.44h127.82v-244.33h120.25l101.02,244.33h152.5l-126.66-269.23Z"/>
      <path class="cls-40" d="M573.84,529.65v-194.52h123.42c29.68,0,52.75,8.46,69.21,25.38,16.46,16.91,24.69,40.88,24.69,71.88s-8.23,54.59-24.69,71.66c-16.46,17.08-39.52,25.61-69.21,25.61h-123.42ZM820.86,618.92c17.91-8.74,33.82-19.79,47.73-33.13,40.33-38.68,60.49-92.95,60.49-162.8,0-64.52-20.16-114.33-60.49-149.41-40.34-35.08-97.45-52.62-171.33-52.62H213.3v110.35l232.77.4v556.43h127.77v-244.32h120.2l100.98,244.32h152.45l-126.62-269.22Z"/>
      <path class="cls-53" d="M573.59,529.82v-194.52h123.37c29.67,0,52.73,8.46,69.18,25.38,16.45,16.91,24.68,40.87,24.68,71.88s-8.23,54.59-24.68,71.66c-16.45,17.08-39.51,25.61-69.18,25.61h-123.37ZM820.52,619.09c17.91-8.74,33.81-19.79,47.72-33.13,40.31-38.68,60.47-92.94,60.47-162.8,0-64.52-20.16-114.32-60.47-149.4-40.33-35.08-97.41-52.62-171.27-52.62H213.18v110.34l232.68.4v556.41h127.73v-244.31h120.16l100.94,244.31h152.39l-126.57-269.21Z"/>
      <path class="cls-65" d="M573.34,529.99v-194.51h123.32c29.66,0,52.71,8.46,69.16,25.38,16.45,16.91,24.67,40.87,24.67,71.87s-8.22,54.58-24.67,71.65c-16.45,17.08-39.5,25.61-69.16,25.61h-123.32ZM820.18,619.25c17.9-8.74,33.8-19.79,47.7-33.13,40.3-38.68,60.45-92.94,60.45-162.79,0-64.52-20.15-114.32-60.45-149.4-40.31-35.08-97.38-52.62-171.21-52.62H213.07v110.34l232.6.4v556.4h127.68v-244.31h120.12l100.9,244.31h152.34l-126.52-269.2Z"/>
      <path class="cls-72" d="M573.09,530.16v-194.51h123.28c29.65,0,52.69,8.46,69.13,25.38,16.44,16.91,24.66,40.87,24.66,71.87s-8.22,54.58-24.66,71.65c-16.44,17.08-39.48,25.61-69.13,25.61h-123.28ZM819.83,619.42c17.89-8.74,33.79-19.78,47.68-33.12,40.29-38.68,60.43-92.94,60.43-162.79,0-64.52-20.14-114.32-60.43-149.4-40.3-35.08-97.34-52.62-171.15-52.62H212.95v110.34l232.51.4v556.38h127.63v-244.3h120.07l100.87,244.3h152.28l-126.48-269.2Z"/>
      <path class="cls-68" d="M572.84,530.32v-194.5h123.23c29.64,0,52.67,8.46,69.11,25.38,16.43,16.91,24.65,40.87,24.65,71.87s-8.22,54.58-24.65,71.65c-16.43,17.08-39.47,25.61-69.11,25.61h-123.23ZM819.49,619.58c17.89-8.74,33.78-19.78,47.66-33.12,40.27-38.68,60.41-92.94,60.41-162.78,0-64.51-20.14-114.31-60.41-149.39-40.28-35.08-97.3-52.62-171.08-52.62H212.83v110.34l232.43.4v556.37h127.59v-244.29h120.03l100.83,244.29h152.23l-126.43-269.19Z"/>
      <path class="cls-38" d="M572.59,530.49v-194.5h123.19c29.63,0,52.65,8.46,69.08,25.38,16.43,16.91,24.64,40.87,24.64,71.87s-8.21,54.58-24.64,71.65c-16.43,17.08-39.45,25.61-69.08,25.61h-123.19ZM819.15,619.75c17.88-8.74,33.76-19.78,47.65-33.12,40.26-38.68,60.38-92.93,60.38-162.78,0-64.51-20.13-114.31-60.38-149.39-40.27-35.08-97.27-52.62-171.02-52.62H212.71v110.33l232.34.4v556.35h127.54v-244.29h119.98l100.79,244.29h152.17l-126.38-269.18Z"/>
      <path class="cls-47" d="M572.33,530.66v-194.49h123.14c29.62,0,52.63,8.46,69.06,25.38,16.42,16.91,24.63,40.87,24.63,71.87s-8.21,54.58-24.63,71.65c-16.42,17.08-39.44,25.61-69.06,25.61h-123.14ZM818.81,619.91c17.87-8.74,33.75-19.78,47.63-33.12,40.24-38.67,60.36-92.93,60.36-162.77,0-64.51-20.12-114.31-60.36-149.38-40.25-35.08-97.23-52.61-170.96-52.61H212.59v110.33l232.26.4v556.34h127.49v-244.28h119.94l100.76,244.28h152.11l-126.34-269.17Z"/>
      <path class="cls-102" d="M572.08,530.82v-194.49h123.1c29.61,0,52.62,8.46,69.03,25.37,16.42,16.91,24.62,40.87,24.62,71.86s-8.21,54.58-24.62,71.64c-16.42,17.08-39.42,25.6-69.03,25.6h-123.1ZM818.47,620.07c17.87-8.74,33.74-19.78,47.61-33.12,40.23-38.67,60.34-92.93,60.34-162.77,0-64.51-20.11-114.31-60.34-149.38-40.24-35.08-97.2-52.61-170.89-52.61H212.47v110.33l232.17.4v556.32h127.44v-244.27h119.9l100.72,244.27h152.06l-126.29-269.17Z"/>
      <path class="cls-4" d="M571.83,530.99v-194.48h123.05c29.6,0,52.6,8.46,69.01,25.37,16.41,16.91,24.61,40.87,24.61,71.86s-8.2,54.58-24.61,71.64c-16.41,17.08-39.41,25.6-69.01,25.6h-123.05ZM818.12,620.24c17.86-8.74,33.73-19.78,47.59-33.12,40.21-38.67,60.32-92.93,60.32-162.76,0-64.51-20.11-114.3-60.32-149.38-40.22-35.07-97.16-52.61-170.83-52.61H212.35v110.32l232.09.4v556.31h127.4v-244.27h119.85l100.68,244.27h152l-126.25-269.16Z"/>
      <path class="cls-89" d="M571.58,531.16v-194.48h123.01c29.59,0,52.58,8.46,68.98,25.37,16.4,16.91,24.61,40.87,24.61,71.86s-8.2,54.57-24.61,71.64c-16.4,17.08-39.39,25.6-68.98,25.6h-123.01ZM817.78,620.4c17.85-8.74,33.71-19.78,47.58-33.12,40.2-38.67,60.3-92.92,60.3-162.76,0-64.5-20.1-114.3-60.3-149.37-40.21-35.07-97.13-52.61-170.77-52.61H212.23v110.32l232,.4v556.29h127.35v-244.26h119.81l100.65,244.26h151.95l-126.2-269.15Z"/>
      <path class="cls-114" d="M571.33,531.33v-194.47h122.96c29.58,0,52.56,8.46,68.96,25.37,16.4,16.9,24.6,40.86,24.6,71.86s-8.2,54.57-24.6,71.64c-16.4,17.08-39.38,25.6-68.96,25.6h-122.96ZM817.44,620.57c17.85-8.74,33.7-19.78,47.56-33.12,40.18-38.67,60.27-92.92,60.27-162.76,0-64.5-20.09-114.3-60.27-149.37-40.19-35.07-97.09-52.61-170.71-52.61H212.11v110.32l231.92.4v556.28h127.3v-244.25h119.76l100.61,244.25h151.89l-126.15-269.15Z"/>
      <path class="cls-55" d="M571.08,531.49v-194.47h122.92c29.56,0,52.54,8.46,68.93,25.37,16.39,16.9,24.59,40.86,24.59,71.86s-8.2,54.57-24.59,71.64c-16.39,17.07-39.37,25.6-68.93,25.6h-122.92ZM817.1,620.73c17.84-8.74,33.69-19.78,47.54-33.12,40.17-38.67,60.25-92.92,60.25-162.75,0-64.5-20.08-114.29-60.25-149.36-40.18-35.07-97.06-52.61-170.64-52.61H211.99v110.31l231.83.4v556.26h127.26v-244.25h119.72l100.57,244.25h151.84l-126.11-269.14Z"/>
      <path class="cls-117" d="M570.82,531.66v-194.46h122.87c29.55,0,52.52,8.46,68.9,25.37,16.39,16.9,24.58,40.86,24.58,71.85s-8.19,54.57-24.58,71.63c-16.39,17.07-39.35,25.6-68.9,25.6h-122.87ZM816.76,620.9c17.84-8.74,33.68-19.78,47.52-33.12,40.15-38.67,60.23-92.92,60.23-162.75,0-64.5-20.08-114.29-60.23-149.36-40.16-35.07-97.02-52.61-170.58-52.61H211.87v110.31l231.75.4v556.25h127.21v-244.24h119.68l100.54,244.24h151.78l-126.06-269.13Z"/>
      <path class="cls-101" d="M570.57,531.83v-194.46h122.83c29.54,0,52.5,8.46,68.88,25.37,16.38,16.9,24.57,40.86,24.57,71.85s-8.19,54.57-24.57,71.63c-16.38,17.07-39.34,25.6-68.88,25.6h-122.83ZM816.41,621.06c17.83-8.74,33.66-19.78,47.51-33.12,40.14-38.67,60.21-92.91,60.21-162.74,0-64.5-20.07-114.29-60.21-149.36-40.15-35.07-96.98-52.6-170.52-52.6H211.75v110.31l231.66.4v556.23h127.16v-244.23h119.63l100.5,244.23h151.72l-126.01-269.12Z"/>
      <path class="cls-106" d="M570.32,531.99v-194.45h122.78c29.53,0,52.48,8.46,68.85,25.37,16.37,16.9,24.56,40.86,24.56,71.85s-8.19,54.57-24.56,71.63c-16.37,17.07-39.32,25.6-68.85,25.6h-122.78ZM816.07,621.23c17.82-8.74,33.65-19.78,47.49-33.11,40.12-38.67,60.18-92.91,60.18-162.74,0-64.5-20.06-114.28-60.18-149.35-40.13-35.07-96.95-52.6-170.46-52.6H211.63v110.31l231.57.4v556.22h127.12v-244.23h119.59l100.46,244.23h151.67l-125.97-269.12Z"/>
      <path class="cls-119" d="M570.07,532.16v-194.44h122.74c29.52,0,52.46,8.46,68.83,25.37,16.37,16.9,24.55,40.86,24.55,71.85s-8.18,54.57-24.55,71.63c-16.37,17.07-39.31,25.6-68.83,25.6h-122.74ZM815.73,621.39c17.82-8.74,33.64-19.78,47.47-33.11,40.11-38.66,60.16-92.91,60.16-162.73,0-64.49-20.05-114.28-60.16-149.35-40.12-35.07-96.91-52.6-170.39-52.6H211.51v110.3l231.49.4v556.2h127.07v-244.22h119.54l100.42,244.22h151.61l-125.92-269.11Z"/>
      <path class="cls-27" d="M569.82,532.33v-194.44h122.69c29.51,0,52.44,8.46,68.8,25.37,16.36,16.9,24.54,40.86,24.54,71.85s-8.18,54.56-24.54,71.63c-16.36,17.07-39.29,25.6-68.8,25.6h-122.69ZM815.39,621.56c17.81-8.74,33.63-19.78,47.45-33.11,40.09-38.66,60.14-92.91,60.14-162.73,0-64.49-20.05-114.28-60.14-149.34-40.1-35.07-96.88-52.6-170.33-52.6H211.39v110.3l231.4.4v556.19h127.02v-244.21h119.5l100.39,244.21h151.56l-125.87-269.1Z"/>
      <path class="cls-43" d="M569.57,532.5v-194.43h122.65c29.5,0,52.42,8.46,68.78,25.37,16.36,16.9,24.53,40.86,24.53,71.84s-8.18,54.56-24.53,71.62c-16.36,17.07-39.28,25.6-68.78,25.6h-122.65ZM815.05,621.72c17.8-8.74,33.61-19.78,47.44-33.11,40.08-38.66,60.12-92.9,60.12-162.72,0-64.49-20.04-114.27-60.12-149.34-40.09-35.07-96.84-52.6-170.27-52.6H211.27v110.3l231.32.4v556.17h126.98v-244.21h119.46l100.35,244.21h151.5l-125.83-269.09Z"/>
      <path class="cls-73" d="M569.32,532.66v-194.43h122.6c29.49,0,52.4,8.46,68.75,25.37,16.35,16.9,24.52,40.86,24.52,71.84s-8.17,54.56-24.52,71.62c-16.35,17.07-39.26,25.6-68.75,25.6h-122.6ZM814.7,621.89c17.8-8.74,33.6-19.78,47.42-33.11,40.06-38.66,60.1-92.9,60.1-162.72,0-64.49-20.03-114.27-60.1-149.34-40.07-35.06-96.81-52.6-170.2-52.6H211.15v110.29l231.23.4v556.16h126.93v-244.2h119.41l100.31,244.2h151.44l-125.78-269.09Z"/>
      <path class="cls-103" d="M569.06,532.83v-194.42h122.56c29.48,0,52.38,8.46,68.73,25.37,16.34,16.9,24.52,40.85,24.52,71.84s-8.17,54.56-24.52,71.62c-16.34,17.07-39.25,25.6-68.73,25.6h-122.56ZM814.36,622.05c17.79-8.74,33.59-19.78,47.4-33.11,40.05-38.66,60.07-92.9,60.07-162.72,0-64.49-20.02-114.27-60.07-149.33-40.06-35.06-96.77-52.6-170.14-52.6H211.03v110.29l231.15.4v556.14h126.88v-244.19h119.37l100.28,244.19h151.39l-125.74-269.08Z"/>
      <path class="cls-11" d="M568.81,533v-194.42h122.51c29.47,0,52.36,8.46,68.7,25.37,16.34,16.9,24.51,40.85,24.51,71.84s-8.17,54.56-24.51,71.62c-16.34,17.07-39.23,25.6-68.7,25.6h-122.51ZM814.02,622.22c17.78-8.74,33.58-19.78,47.38-33.11,40.03-38.66,60.05-92.9,60.05-162.71,0-64.49-20.02-114.26-60.05-149.33-40.04-35.06-96.73-52.59-170.08-52.59H210.91v110.29l231.06.4v556.13h126.84v-244.19h119.32l100.24,244.19h151.33l-125.69-269.07Z"/>
      <path class="cls-33" d="M568.56,533.16v-194.41h122.47c29.46,0,52.35,8.45,68.68,25.36,16.33,16.9,24.5,40.85,24.5,71.84s-8.17,54.56-24.5,71.62c-16.33,17.07-39.22,25.6-68.68,25.6h-122.47ZM813.68,622.38c17.78-8.74,33.56-19.77,47.37-33.11,40.02-38.66,60.03-92.89,60.03-162.71,0-64.48-20.01-114.26-60.03-149.32-40.03-35.06-96.7-52.59-170.02-52.59H210.79v110.28l230.98.4v556.11h126.79v-244.18h119.28l100.2,244.18h151.28l-125.64-269.06Z"/>
      <path class="cls-20" d="M568.31,533.33v-194.41h122.42c29.45,0,52.33,8.45,68.65,25.36,16.33,16.9,24.49,40.85,24.49,71.83s-8.16,54.55-24.49,71.61c-16.33,17.07-39.21,25.59-68.65,25.59h-122.42ZM813.34,622.55c17.77-8.74,33.55-19.77,47.35-33.11,40-38.66,60.01-92.89,60.01-162.7,0-64.48-20-114.26-60.01-149.32-40.02-35.06-96.66-52.59-169.95-52.59H210.67v110.28l230.89.4v556.1h126.74v-244.17h119.24l100.17,244.17h151.22l-125.6-269.06Z"/>
      <path class="cls-111" d="M568.06,533.5v-194.4h122.38c29.43,0,52.31,8.45,68.63,25.36,16.32,16.9,24.48,40.85,24.48,71.83s-8.16,54.55-24.48,71.61c-16.32,17.07-39.19,25.59-68.63,25.59h-122.38ZM812.99,622.71c17.76-8.73,33.54-19.77,47.33-33.11,39.99-38.66,59.99-92.89,59.99-162.7,0-64.48-19.99-114.26-59.99-149.32-40-35.06-96.63-52.59-169.89-52.59H210.55v110.28l230.81.4v556.08h126.7v-244.17h119.19l100.13,244.17h151.17l-125.55-269.05Z"/>
      <path class="cls-113" d="M567.81,533.67v-194.4h122.33c29.42,0,52.29,8.45,68.6,25.36,16.31,16.9,24.47,40.85,24.47,71.83s-8.16,54.55-24.47,71.61c-16.31,17.07-39.18,25.59-68.6,25.59h-122.33ZM812.65,622.88c17.76-8.73,33.53-19.77,47.31-33.11,39.98-38.66,59.96-92.89,59.96-162.69,0-64.48-19.99-114.25-59.96-149.31-39.99-35.06-96.59-52.59-169.83-52.59H210.43v110.28l230.72.4v556.07h126.65v-244.16h119.15l100.09,244.16h151.11l-125.5-269.04Z"/>
      <path class="cls-35" d="M567.55,533.83v-194.39h122.29c29.41,0,52.27,8.45,68.58,25.36,16.31,16.9,24.46,40.85,24.46,71.83s-8.15,54.55-24.46,71.61c-16.31,17.07-39.16,25.59-68.58,25.59h-122.29ZM812.31,623.04c17.75-8.73,33.52-19.77,47.3-33.1,39.96-38.65,59.94-92.88,59.94-162.69,0-64.48-19.98-114.25-59.94-149.31-39.97-35.06-96.56-52.59-169.77-52.59H210.31v110.27l230.64.4v556.05h126.6v-244.15h119.1l100.05,244.15h151.05l-125.46-269.04Z"/>
      <path class="cls-66" d="M567.3,534v-194.39h122.24c29.4,0,52.25,8.45,68.55,25.36,16.3,16.9,24.45,40.85,24.45,71.83s-8.15,54.55-24.45,71.61c-16.3,17.07-39.15,25.59-68.55,25.59h-122.24ZM811.97,623.2c17.74-8.73,33.5-19.77,47.28-33.1,39.95-38.65,59.92-92.88,59.92-162.68,0-64.48-19.97-114.25-59.92-149.3-39.96-35.06-96.52-52.59-169.7-52.59H210.19v110.27l230.55.4v556.04h126.56v-244.15h119.06l100.02,244.15h151l-125.41-269.03Z"/>
      <path class="cls-13" d="M567.05,534.17v-194.38h122.2c29.39,0,52.23,8.45,68.52,25.36,16.3,16.9,24.44,40.85,24.44,71.83s-8.15,54.55-24.44,71.6c-16.3,17.07-39.13,25.59-68.52,25.59h-122.2ZM811.63,623.37c17.74-8.73,33.49-19.77,47.26-33.1,39.93-38.65,59.9-92.88,59.9-162.68,0-64.47-19.97-114.24-59.9-149.3-39.94-35.06-96.48-52.58-169.64-52.58H210.07v110.27l230.47.4v556.02h126.51v-244.14h119.02l99.98,244.14h150.94l-125.36-269.02Z"/>
      <path class="cls-50" d="M566.8,534.33v-194.38h122.15c29.38,0,52.21,8.45,68.5,25.36,16.29,16.9,24.43,40.84,24.43,71.82s-8.14,54.55-24.43,71.6c-16.29,17.07-39.12,25.59-68.5,25.59h-122.15ZM811.28,623.53c17.73-8.73,33.48-19.77,47.24-33.1,39.92-38.65,59.87-92.88,59.87-162.68,0-64.47-19.96-114.24-59.87-149.3-39.93-35.06-96.45-52.58-169.58-52.58H209.95v110.26l230.38.4v556.01h126.46v-244.13h118.97l99.94,244.13h150.89l-125.32-269.01Z"/>
      <path class="cls-39" d="M566.55,534.5v-194.37h122.11c29.37,0,52.19,8.45,68.47,25.36,16.28,16.9,24.43,40.84,24.43,71.82s-8.14,54.54-24.43,71.6c-16.28,17.07-39.1,25.59-68.47,25.59h-122.11ZM810.94,623.7c17.72-8.73,33.47-19.77,47.23-33.1,39.9-38.65,59.85-92.87,59.85-162.67,0-64.47-19.95-114.24-59.85-149.29-39.91-35.05-96.41-52.58-169.51-52.58H209.83v110.26l230.3.4v555.99h126.42v-244.13h118.93l99.91,244.13h150.83l-125.27-269.01Z"/>
      <path class="cls-87" d="M566.3,534.67v-194.37h122.06c29.36,0,52.17,8.45,68.45,25.36,16.28,16.9,24.42,40.84,24.42,71.82s-8.14,54.54-24.42,71.6c-16.28,17.07-39.09,25.59-68.45,25.59h-122.06ZM810.6,623.86c17.72-8.73,33.45-19.77,47.21-33.1,39.89-38.65,59.83-92.87,59.83-162.67,0-64.47-19.94-114.23-59.83-149.29-39.9-35.05-96.38-52.58-169.45-52.58H209.72v110.26l230.21.4v555.98h126.37v-244.12h118.88l99.87,244.12h150.78l-125.23-269Z"/>
      <path class="cls-56" d="M566.04,534.84v-194.36h122.01c29.35,0,52.15,8.45,68.42,25.36,16.27,16.9,24.41,40.84,24.41,71.82s-8.14,54.54-24.41,71.6c-16.27,17.07-39.08,25.59-68.42,25.59h-122.01ZM810.26,624.03c17.71-8.73,33.44-19.77,47.19-33.1,39.87-38.65,59.81-92.87,59.81-162.66,0-64.47-19.94-114.23-59.81-149.28-39.88-35.05-96.34-52.58-169.39-52.58H209.6v110.25l230.13.4v555.96h126.32v-244.11h118.84l99.83,244.11h150.72l-125.18-268.99Z"/>
      <path class="cls-42" d="M565.79,535v-194.35h121.97c29.34,0,52.13,8.45,68.4,25.36,16.27,16.89,24.4,40.84,24.4,71.82s-8.13,54.54-24.4,71.59c-16.27,17.06-39.06,25.59-68.4,25.59h-121.97ZM809.92,624.19c17.7-8.73,33.43-19.77,47.17-33.1,39.86-38.65,59.79-92.87,59.79-162.66,0-64.46-19.93-114.23-59.79-149.28-39.87-35.05-96.31-52.58-169.33-52.58H209.48v110.25l230.04.4v555.95h126.28v-244.11h118.8l99.8,244.11h150.66l-125.13-268.98Z"/>
      <path class="cls-16" d="M565.54,535.17v-194.35h121.92c29.33,0,52.11,8.45,68.37,25.36,16.26,16.89,24.39,40.84,24.39,71.81s-8.13,54.54-24.39,71.59c-16.26,17.06-39.05,25.59-68.37,25.59h-121.92ZM809.57,624.36c17.7-8.73,33.42-19.77,47.16-33.1,39.84-38.65,59.76-92.86,59.76-162.65,0-64.46-19.92-114.22-59.76-149.27-39.85-35.05-96.27-52.58-169.26-52.58H209.36v110.25l229.96.4v555.93h126.23v-244.1h118.75l99.76,244.1h150.61l-125.09-268.98Z"/>
      <path class="cls-59" d="M565.29,535.34v-194.34h121.88c29.32,0,52.09,8.45,68.35,25.36,16.25,16.89,24.38,40.84,24.38,71.81s-8.13,54.54-24.38,71.59c-16.25,17.06-39.03,25.59-68.35,25.59h-121.88ZM809.23,624.52c17.69-8.73,33.4-19.77,47.14-33.1,39.83-38.64,59.74-92.86,59.74-162.65,0-64.46-19.91-114.22-59.74-149.27-39.84-35.05-96.23-52.57-169.2-52.57H209.24v110.25l229.87.4v555.91h126.18v-244.09h118.71l99.72,244.09h150.55l-125.04-268.97Z"/>
      <path class="cls-96" d="M565.04,535.5v-194.34h121.83c29.3,0,52.07,8.45,68.32,25.36,16.25,16.89,24.37,40.84,24.37,71.81s-8.12,54.54-24.37,71.59c-16.25,17.06-39.02,25.59-68.32,25.59h-121.83ZM808.89,624.69c17.68-8.73,33.39-19.77,47.12-33.1,39.81-38.64,59.72-92.86,59.72-162.65,0-64.46-19.91-114.22-59.72-149.27-39.82-35.05-96.2-52.57-169.14-52.57H209.12v110.24l229.79.4v555.9h126.14v-244.09h118.66l99.69,244.09h150.5l-124.99-268.96Z"/>
      <path class="cls-60" d="M564.79,535.67v-194.33h121.79c29.29,0,52.06,8.45,68.3,25.35,16.24,16.89,24.36,40.84,24.36,71.81s-8.12,54.53-24.36,71.59c-16.24,17.06-39,25.58-68.3,25.58h-121.79ZM808.55,624.85c17.68-8.73,33.38-19.77,47.1-33.09,39.8-38.64,59.7-92.86,59.7-162.64,0-64.46-19.9-114.22-59.7-149.26-39.81-35.05-96.16-52.57-169.08-52.57H209v110.24l229.7.4v555.88h126.09v-244.08h118.62l99.65,244.08h150.44l-124.95-268.96Z"/>
      <path class="cls-31" d="M564.53,535.84v-194.33h121.74c29.28,0,52.04,8.45,68.27,25.35,16.24,16.89,24.35,40.83,24.35,71.81s-8.12,54.53-24.35,71.59c-16.24,17.06-38.99,25.58-68.27,25.58h-121.74ZM808.21,625.02c17.67-8.73,33.37-19.77,47.09-33.09,39.78-38.64,59.68-92.85,59.68-162.64,0-64.46-19.89-114.21-59.68-149.26-39.79-35.05-96.13-52.57-169.01-52.57H208.88v110.24l229.61.4v555.87h126.04v-244.07h118.58l99.61,244.07h150.38l-124.9-268.95Z"/>
      <path class="cls-62" d="M564.28,536.01v-194.32h121.7c29.27,0,52.02,8.45,68.25,25.35,16.23,16.89,24.34,40.83,24.34,71.8s-8.11,54.53-24.34,71.58c-16.23,17.06-38.97,25.58-68.25,25.58h-121.7ZM807.86,625.18c17.66-8.73,33.35-19.77,47.07-33.09,39.77-38.64,59.65-92.85,59.65-162.63,0-64.45-19.88-114.21-59.65-149.25-39.78-35.05-96.09-52.57-168.95-52.57H208.76v110.23l229.53.4v555.85h125.99v-244.07h118.53l99.57,244.07h150.33l-124.85-268.94Z"/>
      <path class="cls-63" d="M564.03,536.17v-194.32h121.65c29.26,0,52,8.45,68.22,25.35,16.22,16.89,24.33,40.83,24.33,71.8s-8.11,54.53-24.33,71.58c-16.22,17.06-38.96,25.58-68.22,25.58h-121.65ZM807.52,625.35c17.66-8.73,33.34-19.77,47.05-33.09,39.75-38.64,59.63-92.85,59.63-162.63,0-64.45-19.88-114.21-59.63-149.25-39.76-35.04-96.06-52.57-168.89-52.57H208.64v110.23l229.44.4v555.84h125.95v-244.06h118.49l99.54,244.06h150.27l-124.81-268.93Z"/>
      <path class="cls-18" d="M563.78,536.34v-194.31h121.61c29.25,0,51.98,8.45,68.2,25.35,16.22,16.89,24.33,40.83,24.33,71.8s-8.11,54.53-24.33,71.58c-16.22,17.06-38.95,25.58-68.2,25.58h-121.61ZM807.18,625.51c17.65-8.73,33.33-19.76,47.03-33.09,39.74-38.64,59.61-92.85,59.61-162.62,0-64.45-19.87-114.2-59.61-149.25-39.75-35.04-96.02-52.57-168.82-52.57H208.52v110.23l229.36.4v555.82h125.9v-244.05h118.44l99.5,244.05h150.22l-124.76-268.93Z"/>
      <path class="cls-26" d="M563.53,536.51v-194.31h121.56c29.24,0,51.96,8.45,68.17,25.35,16.21,16.89,24.32,40.83,24.32,71.8s-8.11,54.53-24.32,71.58c-16.21,17.06-38.93,25.58-68.17,25.58h-121.56ZM806.84,625.68c17.65-8.73,33.32-19.76,47.02-33.09,39.72-38.64,59.59-92.84,59.59-162.62,0-64.45-19.86-114.2-59.59-149.24-39.73-35.04-95.99-52.56-168.76-52.56H208.4v110.22l229.27.4v555.81h125.85v-244.05h118.4l99.46,244.05h150.16l-124.72-268.92Z"/>
      <path class="cls-19" d="M563.28,536.67v-194.3h121.52c29.23,0,51.94,8.45,68.14,25.35,16.21,16.89,24.31,40.83,24.31,71.8s-8.1,54.53-24.31,71.58c-16.21,17.06-38.92,25.58-68.14,25.58h-121.52ZM806.49,625.84c17.64-8.73,33.3-19.76,47-33.09,39.71-38.64,59.56-92.84,59.56-162.61,0-64.45-19.85-114.2-59.56-149.24-39.72-35.04-95.95-52.56-168.7-52.56H208.28v110.22l229.19.4v555.79h125.81v-244.04h118.36l99.43,244.04h150.11l-124.67-268.91Z"/>
      <path class="cls-91" d="M563.02,536.84v-194.3h121.47c29.22,0,51.92,8.45,68.12,25.35,16.2,16.89,24.3,40.83,24.3,71.79s-8.1,54.52-24.3,71.57c-16.2,17.06-38.9,25.58-68.12,25.58h-121.47ZM806.15,626c17.63-8.73,33.29-19.76,46.98-33.09,39.69-38.64,59.54-92.84,59.54-162.61,0-64.45-19.85-114.19-59.54-149.23-39.7-35.04-95.91-52.56-168.64-52.56H208.16v110.22l229.1.4v555.78h125.76v-244.04h118.31l99.39,244.04h150.05l-124.62-268.9Z"/>
      <path class="cls-116" d="M562.77,537.01v-194.29h121.43c29.21,0,51.9,8.45,68.09,25.35,16.19,16.89,24.29,40.83,24.29,71.79s-8.1,54.52-24.29,71.57c-16.19,17.06-38.89,25.58-68.09,25.58h-121.43ZM805.81,626.17c17.63-8.73,33.28-19.76,46.96-33.09,39.68-38.63,59.52-92.84,59.52-162.61,0-64.44-19.84-114.19-59.52-149.23-39.69-35.04-95.88-52.56-168.57-52.56H208.04v110.22l229.02.4v555.76h125.71v-244.03h118.27l99.35,244.03h149.99l-124.58-268.9Z"/>
      <path class="cls-45" d="M562.52,537.18v-194.29h121.38c29.2,0,51.88,8.45,68.07,25.35,16.19,16.89,24.28,40.83,24.28,71.79s-8.09,54.52-24.28,71.57c-16.19,17.06-38.87,25.58-68.07,25.58h-121.38ZM805.47,626.33c17.62-8.73,33.27-19.76,46.95-33.09,39.67-38.63,59.5-92.83,59.5-162.6,0-64.44-19.83-114.19-59.5-149.23-39.68-35.04-95.84-52.56-168.51-52.56H207.92v110.21l228.93.4v555.75h125.67v-244.02h118.22l99.32,244.02h149.94l-124.53-268.89Z"/>
      <path class="cls-82" d="M562.27,537.34v-194.28h121.34c29.18,0,51.86,8.45,68.04,25.35,16.18,16.89,24.27,40.82,24.27,71.79s-8.09,54.52-24.27,71.57c-16.18,17.06-38.86,25.58-68.04,25.58h-121.34ZM805.13,626.5c17.61-8.73,33.26-19.76,46.93-33.09,39.65-38.63,59.48-92.83,59.48-162.6,0-64.44-19.83-114.18-59.48-149.22-39.66-35.04-95.81-52.56-168.45-52.56H207.8v110.21l228.85.4v555.73h125.62v-244.02h118.18l99.28,244.02h149.88l-124.48-268.88Z"/>
      <path class="cls-10" d="M562.02,537.51v-194.28h121.29c29.17,0,51.84,8.45,68.02,25.35,16.17,16.89,24.26,40.82,24.26,71.79s-8.09,54.52-24.26,71.57c-16.17,17.06-38.84,25.58-68.02,25.58h-121.29ZM804.78,626.66c17.61-8.73,33.24-19.76,46.91-33.09,39.64-38.63,59.45-92.83,59.45-162.59,0-64.44-19.82-114.18-59.45-149.22-39.65-35.04-95.77-52.56-168.39-52.56H207.68v110.21l228.76.4v555.72h125.57v-244.01h118.14l99.24,244.01h149.83l-124.44-268.87Z"/>
      <path class="cls-54" d="M561.77,537.68v-194.27h121.25c29.16,0,51.82,8.45,67.99,25.35,16.17,16.89,24.25,40.82,24.25,71.78s-8.08,54.52-24.25,71.56c-16.17,17.06-38.83,25.58-67.99,25.58h-121.25ZM804.44,626.83c17.6-8.73,33.23-19.76,46.89-33.08,39.62-38.63,59.43-92.83,59.43-162.59,0-64.44-19.81-114.18-59.43-149.21-39.63-35.04-95.74-52.55-168.32-52.55H207.56v110.2l228.68.4v555.7h125.53v-244h118.09l99.2,244h149.77l-124.39-268.87Z"/>
      <path class="cls-107" d="M561.52,537.84v-194.27h121.2c29.15,0,51.8,8.45,67.97,25.35,16.16,16.89,24.24,40.82,24.24,71.78s-8.08,54.51-24.24,71.56c-16.16,17.06-38.82,25.58-67.97,25.58h-121.2ZM804.1,626.99c17.59-8.73,33.22-19.76,46.88-33.08,39.61-38.63,59.41-92.82,59.41-162.58,0-64.43-19.8-114.17-59.41-149.21-39.62-35.04-95.7-52.55-168.26-52.55H207.44v110.2l228.59.4v555.69h125.48v-244h118.05l99.17,244h149.71l-124.34-268.86Z"/>
      <path class="cls-95" d="M561.26,538.01v-194.26h121.16c29.14,0,51.79,8.45,67.94,25.34,16.16,16.89,24.24,40.82,24.24,71.78s-8.08,54.51-24.24,71.56c-16.16,17.06-38.8,25.57-67.94,25.57h-121.16ZM803.76,627.16c17.59-8.73,33.21-19.76,46.86-33.08,39.59-38.63,59.39-92.82,59.39-162.58,0-64.43-19.8-114.17-59.39-149.21-39.6-35.03-95.66-52.55-168.2-52.55H207.32v110.2l228.51.4v555.67h125.43v-243.99h118l99.13,243.99h149.66l-124.3-268.85Z"/>
      <path class="cls-104" d="M561.01,538.18v-194.25h121.11c29.13,0,51.77,8.45,67.92,25.34,16.15,16.89,24.23,40.82,24.23,71.78s-8.08,54.51-24.23,71.56c-16.15,17.06-38.79,25.57-67.92,25.57h-121.11ZM803.42,627.32c17.58-8.73,33.19-19.76,46.84-33.08,39.58-38.63,59.36-92.82,59.36-162.57,0-64.43-19.79-114.17-59.36-149.2-39.59-35.03-95.63-52.55-168.14-52.55H207.2v110.19l228.42.4v555.66h125.39v-243.98h117.96l99.09,243.98h149.6l-124.25-268.85Z"/>
      <path class="cls-41" d="M560.76,538.35v-194.25h121.07c29.12,0,51.75,8.45,67.89,25.34,16.14,16.89,24.22,40.82,24.22,71.78s-8.07,54.51-24.22,71.56c-16.14,17.06-38.77,25.57-67.89,25.57h-121.07ZM803.07,627.49c17.57-8.73,33.18-19.76,46.82-33.08,39.56-38.63,59.34-92.82,59.34-162.57,0-64.43-19.78-114.17-59.34-149.2-39.57-35.03-95.59-52.55-168.07-52.55H207.08v110.19l228.34.4v555.64h125.34v-243.98h117.92l99.06,243.98h149.55l-124.21-268.84Z"/>
      <path class="cls-12" d="M560.51,538.51v-194.24h121.02c29.11,0,51.73,8.45,67.87,25.34,16.14,16.89,24.21,40.82,24.21,71.77s-8.07,54.51-24.21,71.55c-16.14,17.06-38.76,25.57-67.87,25.57h-121.02ZM802.73,627.65c17.57-8.73,33.17-19.76,46.81-33.08,39.55-38.62,59.32-92.81,59.32-162.57,0-64.43-19.77-114.16-59.32-149.19-39.56-35.03-95.56-52.55-168.01-52.55H206.96v110.19l228.25.4v555.63h125.29v-243.97h117.87l99.02,243.97h149.49l-124.16-268.83Z"/>
      <path class="cls-105" d="M560.26,538.68v-194.24h120.98c29.1,0,51.71,8.45,67.84,25.34,16.13,16.88,24.2,40.82,24.2,71.77s-8.07,54.51-24.2,71.55c-16.13,17.05-38.74,25.57-67.84,25.57h-120.98ZM802.39,627.82c17.56-8.73,33.16-19.76,46.79-33.08,39.53-38.62,59.3-92.81,59.3-162.56,0-64.43-19.77-114.16-59.3-149.19-39.54-35.03-95.52-52.55-167.95-52.55H206.84v110.19l228.17.4v555.61h125.25v-243.96h117.83l98.98,243.96h149.44l-124.11-268.82Z"/>
      <path class="cls-90" d="M560.01,538.85v-194.23h120.93c29.09,0,51.69,8.45,67.82,25.34,16.13,16.88,24.19,40.81,24.19,71.77s-8.06,54.51-24.19,71.55c-16.13,17.05-38.73,25.57-67.82,25.57h-120.93ZM802.05,627.98c17.55-8.73,33.14-19.76,46.77-33.08,39.52-38.62,59.28-92.81,59.28-162.56,0-64.42-19.76-114.16-59.28-149.19-39.53-35.03-95.49-52.54-167.88-52.54H206.72v110.18l228.08.4v555.6h125.2v-243.96h117.78l98.95,243.96h149.38l-124.07-268.82Z"/>
      <path class="cls-30" d="M559.75,539.01v-194.23h120.89c29.08,0,51.67,8.45,67.79,25.34,16.12,16.88,24.18,40.81,24.18,71.77s-8.06,54.5-24.18,71.55c-16.12,17.05-38.71,25.57-67.79,25.57h-120.89ZM801.71,628.15c17.55-8.73,33.13-19.76,46.75-33.08,39.5-38.62,59.25-92.81,59.25-162.55,0-64.42-19.75-114.15-59.25-149.18-39.51-35.03-95.45-52.54-167.82-52.54H206.6v110.18l228,.4v555.58h125.15v-243.95h117.74l98.91,243.95h149.32l-124.02-268.81Z"/>
      <path class="cls-34" d="M559.5,539.18v-194.22h120.84c29.07,0,51.65,8.45,67.76,25.34,16.11,16.88,24.17,40.81,24.17,71.77s-8.06,54.5-24.17,71.55c-16.11,17.05-38.7,25.57-67.76,25.57h-120.84ZM801.36,628.31c17.54-8.73,33.12-19.76,46.74-33.08,39.49-38.62,59.23-92.8,59.23-162.55,0-64.42-19.74-114.15-59.23-149.18-39.5-35.03-95.41-52.54-167.76-52.54H206.48v110.18l227.91.4v555.57h125.11v-243.94h117.7l98.87,243.94h149.27l-123.97-268.8Z"/>
      <path class="cls-85" d="M559.25,539.35v-194.22h120.79c29.05,0,51.63,8.45,67.74,25.34,16.11,16.88,24.16,40.81,24.16,71.76s-8.05,54.5-24.16,71.54c-16.11,17.05-38.69,25.57-67.74,25.57h-120.79ZM801.02,628.48c17.53-8.73,33.11-19.76,46.72-33.08,39.47-38.62,59.21-92.8,59.21-162.54,0-64.42-19.74-114.15-59.21-149.17-39.48-35.03-95.38-52.54-167.7-52.54H206.37v110.17l227.83.4v555.55h125.06v-243.94h117.65l98.83,243.94h149.21l-123.93-268.79Z"/>
      <path class="cls-94" d="M559,539.52v-194.21h120.75c29.04,0,51.61,8.45,67.71,25.34,16.1,16.88,24.15,40.81,24.15,71.76s-8.05,54.5-24.15,71.54c-16.1,17.05-38.67,25.57-67.71,25.57h-120.75ZM800.68,628.64c17.53-8.73,33.09-19.75,46.7-33.07,39.46-38.62,59.19-92.8,59.19-162.54,0-64.42-19.73-114.14-59.19-149.17-39.47-35.03-95.34-52.54-167.63-52.54H206.25v110.17l227.74.4v555.54h125.01v-243.93h117.61l98.8,243.93h149.16l-123.88-268.79Z"/>
      <path class="cls-100" d="M558.75,539.68v-194.21h120.7c29.03,0,51.59,8.45,67.69,25.34,16.1,16.88,24.14,40.81,24.14,71.76s-8.05,54.5-24.14,71.54c-16.1,17.05-38.66,25.57-67.69,25.57h-120.7ZM800.34,628.81c17.52-8.73,33.08-19.75,46.68-33.07,39.44-38.62,59.17-92.8,59.17-162.53,0-64.42-19.72-114.14-59.17-149.17-39.45-35.02-95.31-52.54-167.57-52.54H206.13v110.17l227.66.4v555.52h124.97v-243.92h117.56l98.76,243.92h149.1l-123.84-268.78Z"/>
      <path class="cls-109" d="M558.5,539.85v-194.2h120.66c29.02,0,51.57,8.45,67.66,25.34,16.09,16.88,24.14,40.81,24.14,71.76s-8.05,54.5-24.14,71.54c-16.09,17.05-38.64,25.57-67.66,25.57h-120.66ZM800,628.97c17.51-8.73,33.07-19.75,46.67-33.07,39.43-38.62,59.14-92.79,59.14-162.53,0-64.41-19.71-114.14-59.14-149.16-39.44-35.02-95.27-52.54-167.51-52.54H206.01v110.16l227.57.4v555.51h124.92v-243.92h117.52l98.72,243.92h149.05l-123.79-268.77Z"/>
      <path class="cls-79" d="M558.24,540.02v-194.2h120.61c29.01,0,51.55,8.45,67.64,25.34,16.08,16.88,24.13,40.81,24.13,71.76s-8.04,54.5-24.13,71.54c-16.08,17.05-38.63,25.57-67.64,25.57h-120.61ZM799.65,629.13c17.51-8.73,33.06-19.75,46.65-33.07,39.41-38.62,59.12-92.79,59.12-162.53,0-64.41-19.71-114.13-59.12-149.16-39.42-35.02-95.24-52.53-167.45-52.53H205.89v110.16l227.48.4v555.49h124.87v-243.91h117.48l98.69,243.91h148.99l-123.74-268.77Z"/>
      <path class="cls-6" d="M557.99,540.18v-194.19h120.57c29,0,51.53,8.45,67.61,25.34,16.08,16.88,24.12,40.81,24.12,71.75s-8.04,54.49-24.12,71.53c-16.08,17.05-38.61,25.57-67.61,25.57h-120.57ZM799.31,629.3c17.5-8.73,33.04-19.75,46.63-33.07,39.4-38.61,59.1-92.79,59.1-162.52,0-64.41-19.7-114.13-59.1-149.15-39.41-35.02-95.2-52.53-167.38-52.53H205.77v110.16l227.4.4v555.48h124.83v-243.9h117.43l98.65,243.9h148.93l-123.7-268.76Z"/>
      <path class="cls-44" d="M557.74,540.35v-194.19h120.52c28.99,0,51.51,8.45,67.59,25.34,16.07,16.88,24.11,40.8,24.11,71.75s-8.04,54.49-24.11,71.53c-16.07,17.05-38.6,25.57-67.59,25.57h-120.52ZM798.97,629.46c17.49-8.73,33.03-19.75,46.61-33.07,39.38-38.61,59.08-92.79,59.08-162.52,0-64.41-19.69-114.13-59.08-149.15-39.39-35.02-95.16-52.53-167.32-52.53H205.65v110.16l227.31.4v555.46h124.78v-243.9h117.39l98.61,243.9h148.88l-123.65-268.75Z"/>
      <path class="cls-71" d="M557.49,540.52v-194.18h120.48c28.98,0,51.5,8.44,67.56,25.33,16.07,16.88,24.1,40.8,24.1,71.75s-8.03,54.49-24.1,71.53c-16.07,17.05-38.58,25.56-67.56,25.56h-120.48ZM798.63,629.63c17.49-8.72,33.02-19.75,46.6-33.07,39.37-38.61,59.05-92.78,59.05-162.51,0-64.41-19.68-114.13-59.05-149.15-39.38-35.02-95.13-52.53-167.26-52.53H205.53v110.15l227.23.4v555.45h124.73v-243.89h117.34l98.58,243.89h148.82l-123.6-268.74Z"/>
      <path class="cls-86" d="M557.24,540.69v-194.18h120.43c28.97,0,51.48,8.44,67.54,25.33,16.06,16.88,24.09,40.8,24.09,71.75s-8.03,54.49-24.09,71.53c-16.06,17.05-38.57,25.56-67.54,25.56h-120.43ZM798.29,629.79c17.48-8.72,33.01-19.75,46.58-33.07,39.36-38.61,59.03-92.78,59.03-162.51,0-64.41-19.68-114.12-59.03-149.14-39.37-35.02-95.09-52.53-167.19-52.53H205.41v110.15l227.14.4v555.43h124.69v-243.88h117.3l98.54,243.88h148.77l-123.56-268.74Z"/>
      <path class="cls-88" d="M556.99,540.85v-194.17h120.39c28.96,0,51.46,8.44,67.51,25.33,16.05,16.88,24.08,40.8,24.08,71.75s-8.03,54.49-24.08,71.53c-16.05,17.05-38.55,25.56-67.51,25.56h-120.39ZM797.94,629.96c17.47-8.72,33-19.75,46.56-33.07,39.34-38.61,59.01-92.78,59.01-162.5,0-64.4-19.67-114.12-59.01-149.14-39.35-35.02-95.06-52.53-167.13-52.53H205.29v110.15l227.06.4v555.42h124.64v-243.88h117.26l98.5,243.88h148.71l-123.51-268.73Z"/>
      <path class="cls-7" d="M556.73,541.02v-194.16h120.34c28.95,0,51.44,8.44,67.49,25.33,16.05,16.88,24.07,40.8,24.07,71.75s-8.02,54.49-24.07,71.52c-16.05,17.05-38.54,25.56-67.49,25.56h-120.34ZM797.6,630.12c17.47-8.72,32.98-19.75,46.54-33.07,39.33-38.61,58.99-92.78,58.99-162.5,0-64.4-19.66-114.12-58.99-149.13-39.34-35.02-95.02-52.53-167.07-52.53H205.17v110.14l226.97.4v555.4h124.59v-243.87h117.21l98.47,243.87h148.65l-123.46-268.72Z"/>
      <path class="cls-23" d="M556.48,541.19v-194.16h120.3c28.93,0,51.42,8.44,67.46,25.33,16.04,16.88,24.06,40.8,24.06,71.74s-8.02,54.49-24.06,71.52c-16.04,17.05-38.53,25.56-67.46,25.56h-120.3ZM797.26,630.29c17.46-8.72,32.97-19.75,46.53-33.07,39.31-38.61,58.97-92.77,58.97-162.5,0-64.4-19.66-114.11-58.97-149.13-39.32-35.02-94.99-52.52-167.01-52.52H205.05v110.14l226.89.4v555.39h124.55v-243.86h117.17l98.43,243.86h148.6l-123.42-268.71Z"/>
      <path class="cls-78" d="M556.23,541.35v-194.15h120.25c28.92,0,51.4,8.44,67.44,25.33,16.04,16.88,24.05,40.8,24.05,71.74s-8.02,54.48-24.05,71.52c-16.04,17.05-38.51,25.56-67.44,25.56h-120.25ZM796.92,630.45c17.45-8.72,32.96-19.75,46.51-33.06,39.3-38.61,58.94-92.77,58.94-162.49,0-64.4-19.65-114.11-58.94-149.12-39.31-35.02-94.95-52.52-166.94-52.52H204.93v110.14l226.8.4v555.37h124.5v-243.86h117.12l98.39,243.86h148.54l-123.37-268.71Z"/>
      <path class="cls-14" d="M555.98,541.52v-194.15h120.21c28.91,0,51.38,8.44,67.41,25.33,16.03,16.88,24.05,40.8,24.05,71.74s-8.02,54.48-24.05,71.52c-16.03,17.05-38.5,25.56-67.41,25.56h-120.21ZM796.58,630.62c17.45-8.72,32.95-19.75,46.49-33.06,39.28-38.61,58.92-92.77,58.92-162.49,0-64.4-19.64-114.11-58.92-149.12-39.29-35.01-94.92-52.52-166.88-52.52H204.81v110.13l226.72.4v555.36h124.45v-243.85h117.08l98.35,243.85h148.49l-123.33-268.7Z"/>
      <path class="cls-15" d="M555.73,541.69v-194.14h120.16c28.9,0,51.36,8.44,67.38,25.33,16.02,16.88,24.04,40.8,24.04,71.74s-8.01,54.48-24.04,71.52c-16.02,17.05-38.48,25.56-67.38,25.56h-120.16ZM796.23,630.78c17.44-8.72,32.93-19.75,46.47-33.06,39.27-38.6,58.9-92.77,58.9-162.48,0-64.39-19.63-114.1-58.9-149.12-39.28-35.01-94.88-52.52-166.82-52.52H204.69v110.13l226.63.4v555.34h124.4v-243.84h117.04l98.32,243.84h148.43l-123.28-268.69Z"/>
      <path class="cls-36" d="M555.48,541.86v-194.14h120.12c28.89,0,51.34,8.44,67.36,25.33,16.02,16.88,24.03,40.79,24.03,71.74s-8.01,54.48-24.03,71.52c-16.02,17.05-38.47,25.56-67.36,25.56h-120.12ZM795.89,630.95c17.44-8.72,32.92-19.75,46.46-33.06,39.25-38.6,58.88-92.76,58.88-162.48,0-64.39-19.63-114.1-58.88-149.11-39.26-35.01-94.84-52.52-166.76-52.52H204.57v110.13l226.55.4v555.33h124.36v-243.84h116.99l98.28,243.84h148.38l-123.23-268.68Z"/>
      <path class="cls-74" d="M555.22,542.02v-194.13h120.07c28.88,0,51.32,8.44,67.33,25.33,16.01,16.88,24.02,40.79,24.02,71.73s-8.01,54.48-24.02,71.51c-16.01,17.05-38.45,25.56-67.33,25.56h-120.07ZM795.55,631.11c17.43-8.72,32.91-19.75,46.44-33.06,39.24-38.6,58.86-92.76,58.86-162.47,0-64.39-19.62-114.1-58.86-149.11-39.25-35.01-94.81-52.52-166.69-52.52H204.45v110.13l226.46.4v555.31h124.31v-243.83h116.95l98.24,243.83h148.32l-123.19-268.68Z"/>
      <path class="cls-99" d="M554.97,542.19v-194.13h120.03c28.87,0,51.3,8.44,67.31,25.33,16.01,16.88,24.01,40.79,24.01,71.73s-8,54.48-24.01,71.51c-16.01,17.05-38.44,25.56-67.31,25.56h-120.03ZM795.21,631.28c17.42-8.72,32.9-19.75,46.42-33.06,39.22-38.6,58.83-92.76,58.83-162.47,0-64.39-19.61-114.09-58.83-149.1-39.23-35.01-94.77-52.52-166.63-52.52H204.33v110.12l226.38.4v555.3h124.26v-243.82h116.9l98.21,243.82h148.26l-123.14-268.67Z"/>
      <path class="cls-93" d="M554.72,542.36v-194.12h119.98c28.86,0,51.28,8.44,67.28,25.33,16,16.87,24,40.79,24,71.73s-8,54.47-24,71.51c-16,17.04-38.42,25.56-67.28,25.56h-119.98ZM794.87,631.44c17.42-8.72,32.88-19.75,46.4-33.06,39.21-38.6,58.81-92.76,58.81-162.46,0-64.39-19.6-114.09-58.81-149.1-39.22-35.01-94.74-52.51-166.57-52.51H204.21v110.12l226.29.4v555.28h124.22v-243.82h116.86l98.17,243.82h148.21l-123.09-268.66Z"/>
      <path class="cls-92" d="M554.47,542.52v-194.12h119.94c28.85,0,51.26,8.44,67.26,25.33,15.99,16.87,23.99,40.79,23.99,71.73s-8,54.47-23.99,71.51c-15.99,17.04-38.41,25.56-67.26,25.56h-119.94ZM794.52,631.61c17.41-8.72,32.87-19.74,46.39-33.06,39.19-38.6,58.79-92.75,58.79-162.46,0-64.39-19.6-114.09-58.79-149.1-39.2-35.01-94.7-52.51-166.5-52.51H204.09v110.12l226.21.4v555.27h124.17v-243.81h116.82l98.13,243.81h148.15l-123.05-268.66Z"/>
      <path class="cls-70" d="M554.22,542.69v-194.11h119.89c28.84,0,51.24,8.44,67.23,25.33,15.99,16.87,23.98,40.79,23.98,71.73s-7.99,54.47-23.98,71.51c-15.99,17.04-38.4,25.56-67.23,25.56h-119.89ZM794.18,631.77c17.4-8.72,32.86-19.74,46.37-33.06,39.18-38.6,58.77-92.75,58.77-162.46,0-64.38-19.59-114.08-58.77-149.09-39.19-35.01-94.67-52.51-166.44-52.51H203.97v110.11l226.12.4v555.25h124.12v-243.8h116.77l98.1,243.8h148.1l-123-268.65Z"/>
      <path class="cls-108" d="M553.97,542.86v-194.11h119.85c28.83,0,51.23,8.44,67.21,25.32,15.98,16.87,23.97,40.79,23.97,71.72s-7.99,54.47-23.97,71.5c-15.98,17.04-38.38,25.55-67.21,25.55h-119.85ZM793.84,631.93c17.4-8.72,32.85-19.74,46.35-33.06,39.16-38.6,58.74-92.75,58.74-162.45,0-64.38-19.58-114.08-58.74-149.09-39.17-35.01-94.63-52.51-166.38-52.51H203.85v110.11l226.04.4v555.24h124.08v-243.8h116.73l98.06,243.8h148.04l-122.95-268.64Z"/>
      <path class="cls-67" d="M553.72,543.03v-194.1h119.8c28.82,0,51.21,8.44,67.18,25.32,15.98,16.87,23.96,40.79,23.96,71.72s-7.99,54.47-23.96,71.5c-15.98,17.04-38.37,25.55-67.18,25.55h-119.8ZM793.5,632.1c17.39-8.72,32.83-19.74,46.33-33.06,39.15-38.6,58.72-92.75,58.72-162.45,0-64.38-19.57-114.08-58.72-149.08-39.16-35.01-94.59-52.51-166.32-52.51H203.73v110.11l225.95.4v555.22h124.03v-243.79h116.68l98.02,243.79h147.98l-122.91-268.63Z"/>
      <path class="cls-77" d="M553.46,543.19v-194.1h119.76c28.8,0,51.19,8.44,67.16,25.32,15.97,16.87,23.96,40.79,23.96,71.72s-7.99,54.47-23.96,71.5c-15.97,17.04-38.35,25.55-67.16,25.55h-119.76ZM793.16,632.26c17.38-8.72,32.82-19.74,46.32-33.05,39.13-38.6,58.7-92.74,58.7-162.44,0-64.38-19.57-114.08-58.7-149.08-39.14-35-94.56-52.51-166.25-52.51H203.61v110.1l225.87.4v555.21h123.98v-243.78h116.64l97.98,243.78h147.93l-122.86-268.63Z"/>
      <path class="cls-17" d="M553.21,543.36v-194.09h119.71c28.79,0,51.17,8.44,67.13,25.32,15.96,16.87,23.95,40.78,23.95,71.72s-7.98,54.47-23.95,71.5c-15.96,17.04-38.34,25.55-67.13,25.55h-119.71ZM792.81,632.43c17.38-8.72,32.81-19.74,46.3-33.05,39.12-38.59,58.68-92.74,58.68-162.44,0-64.38-19.56-114.07-58.68-149.08-39.13-35-94.52-52.51-166.19-52.51H203.49v110.1l225.78.4v555.19h123.94v-243.78h116.6l97.95,243.78h147.87l-122.82-268.62Z"/>
      <path class="cls-24" d="M552.96,543.53v-194.09h119.67c28.78,0,51.15,8.44,67.11,25.32,15.96,16.87,23.94,40.78,23.94,71.72s-7.98,54.46-23.94,71.5c-15.96,17.04-38.32,25.55-67.11,25.55h-119.67ZM792.47,632.59c17.37-8.72,32.8-19.74,46.28-33.05,39.1-38.59,58.66-92.74,58.66-162.43,0-64.38-19.55-114.07-58.66-149.07-39.11-35-94.49-52.5-166.13-52.5H203.37v110.1l225.7.4v555.18h123.89v-243.77h116.55l97.91,243.77h147.82l-122.77-268.61Z"/>
      <path class="cls-5" d="M552.71,543.69v-194.08h119.62c28.77,0,51.13,8.44,67.08,25.32,15.95,16.87,23.93,40.78,23.93,71.71s-7.98,54.46-23.93,71.49c-15.95,17.04-38.31,25.55-67.08,25.55h-119.62ZM792.13,632.76c17.36-8.72,32.78-19.74,46.26-33.05,39.09-38.59,58.63-92.74,58.63-162.43,0-64.37-19.54-114.07-58.63-149.07-39.1-35-94.45-52.5-166.07-52.5H203.25v110.1l225.61.4v555.16h123.84v-243.76h116.51l97.87,243.76h147.76l-122.72-268.6Z"/>
      <path class="cls-118" d="M552.46,543.86v-194.08h119.58c28.76,0,51.11,8.44,67.06,25.32,15.95,16.87,23.92,40.78,23.92,71.71s-7.97,54.46-23.92,71.49c-15.95,17.04-38.29,25.55-67.06,25.55h-119.58ZM791.79,632.92c17.36-8.72,32.77-19.74,46.25-33.05,39.07-38.59,58.61-92.73,58.61-162.42,0-64.37-19.54-114.06-58.61-149.06-39.08-35-94.42-52.5-166-52.5H203.14v110.09l225.53.4v555.15h123.8v-243.76h116.46l97.84,243.76h147.71l-122.68-268.6Z"/>
      <path class="cls-97" d="M552.21,544.03v-194.07h119.53c28.75,0,51.09,8.44,67.03,25.32,15.94,16.87,23.91,40.78,23.91,71.71s-7.97,54.46-23.91,71.49c-15.94,17.04-38.28,25.55-67.03,25.55h-119.53ZM791.45,633.09c17.35-8.72,32.76-19.74,46.23-33.05,39.06-38.59,58.59-92.73,58.59-162.42,0-64.37-19.53-114.06-58.59-149.06-39.07-35-94.38-52.5-165.94-52.5H203.02v110.09l225.44.4v555.13h123.75v-243.75h116.42l97.8,243.75h147.65l-122.63-268.59Z"/>
    </g>
  </g>
  <g id="Layer_5">
    <rect class="cls-122" x="547.16" y="475.77" width="35.49" height="204"/>
  </g>
</svg>